{"title":"34 Czas honoru S03E08 XviD","uid":5924762,"size":366379055,"categoryP":"video","categoryS":"tv_shows","magnet":"?xt=urn:btih:64961701cb5e792203ac311520c1621138daf369&amp;dn=34+Czas+honoru+S03E08+XviD&amp;tr=udp%3A%2F%2Ftracker.openbittorrent.com%3A80&amp;tr=udp%3A%2F%2Fopen.demonii.com%3A1337&amp;tr=udp%3A%2F%2Ftracker.coppersurfer.tk%3A6969&amp;tr=udp%3A%2F%2Fexodus.desync.com%3A6969","seeders":0,"leechers":0,"uploader":"kisielm","files":2,"time":1288569421,"description":"Format                           : AVI\nFormat/Info                      : Audio Video Interleave\nFile size                        : 349 MiB\nDuration                         : 43mn 52s\nOverall bit rate                 : 1 113 Kbps\n\nVideo\nFormat                           : MPEG-4 Visual\nFormat profile                   : Advanced Simple@L5\nFormat settings, BVOP            : Yes\nFormat settings, QPel            : No\nFormat settings, GMC             : No warppoints\nFormat settings, Matrix          : Default (H.263)\nCodec ID/Hint                    : XviD\nBit rate                         : 992 Kbps\nWidth                            : 624 pixels\nHeight                           : 352 pixels\nDisplay aspect ratio             : 16:9\nFrame rate                       : 25.000 fps\nColor space                      : YUV\nChroma subsampling               : 4:2:0\nBit depth                        : 8 bits\nScan type                        : Progressive\nBits/(Pixel*Frame)               : 0.181\nStream size                      : 311 MiB (89%)\n\nAudio\nFormat                           : MPEG Audio\nFormat version                   : Version 1\nFormat profile                   : Layer 3\nMode                             : Joint stereo\nCodec ID/Hint                    : MP3\nBit rate mode                    : Variable\nBit rate                         : 109 Kbps\nNominal bit rate                 : 128 Kbps\nChannel(s)                       : 2 channels\nSampling rate                    : 48.0 KHz\nStream size                      : 34.1 MiB (10%)","torrent":{"xt":"urn:btih:64961701cb5e792203ac311520c1621138daf369","amp;dn":"34+Czas+honoru+S03E08+XviD","amp;tr":["udp%3A%2F%2Ftracker.openbittorrent.com%3A80","udp%3A%2F%2Fopen.demonii.com%3A1337","udp%3A%2F%2Ftracker.coppersurfer.tk%3A6969","udp%3A%2F%2Fexodus.desync.com%3A6969"],"infoHash":"64961701cb5e792203ac311520c1621138daf369","infoHashBuffer":{"type":"Buffer","data":[100,150,23,1,203,94,121,34,3,172,49,21,32,193,98,17,56,218,243,105]},"announce":[],"urlList":[]}}